<?xml version="1.0" encoding="UTF-8"?>
<svg width="16px" height="16px" viewBox="0 0 16 16" version="1.1" xmlns="http://www.w3.org/2000/svg" xmlns:xlink="http://www.w3.org/1999/xlink">
    <!-- Generator: Sketch 43.2 (39069) - http://www.bohemiancoding.com/sketch -->
    <title>Magnifying glass</title>
    <desc>Created with Sketch.</desc>
    <defs></defs>
    <g id="Resources" stroke="none" stroke-width="1" fill="none" fill-rule="evenodd">
        <g id="Landing-page" transform="translate(-1297.000000, -479.000000)" fill="#717A8A">
            <g id="Sub-Nav" transform="translate(154.000000, 461.000000)">
                <g id="-Filter-/-Search" transform="translate(480.000000, 0.000000)">
                    <g id="Search" transform="translate(480.000000, 0.000000)">
                        <path d="M184.2001,23.9995 C184.2001,21.3530539 186.353613,19.1999 189.0005,19.1999 C191.647387,19.1999 193.8009,21.3530539 193.8009,23.9995 C193.8009,26.6459462 191.647387,28.7991001 189.0005,28.7991001 C186.353613,28.7991001 184.2001,26.6459462 184.2001,23.9995 M198.80265,32.8614282 L198.803984,32.8587618 L193.674223,27.7191901 C194.491624,26.6939422 195.001,25.4127156 195.001,23.9995 C195.001,20.6864428 192.31411,18 189.0005,18 C185.686891,18 183,20.6864428 183,23.9995 C183,27.3125573 185.686891,29.9990001 189.0005,29.9990001 C190.419285,29.9990001 191.704725,29.4857095 192.732811,28.6631114 L197.855905,33.796017 C197.977248,33.9213399 198.145262,34 198.333278,34 C198.701308,34 199,33.7013582 199,33.3333889 C199,33.148071 198.923994,32.9814182 198.80265,32.8614282" id="Magnifying-glass"></path>
                    </g>
                </g>
            </g>
        </g>
    </g>
</svg>